<?xml version="1.0" encoding="utf-8"?>
<!-- Generator: Adobe Illustrator 21.1.0, SVG Export Plug-In . SVG Version: 6.00 Build 0)  -->
<!DOCTYPE svg PUBLIC "-//W3C//DTD SVG 1.1//EN" "http://www.w3.org/Graphics/SVG/1.1/DTD/svg11.dtd">
<svg version="1.1" xmlns="http://www.w3.org/2000/svg" xmlns:xlink="http://www.w3.org/1999/xlink" x="0px" y="0px" width="390px"
	 height="360px" viewBox="0 0 390 360" style="enable-background:new 0 0 390 360;" xml:space="preserve">
<style type="text/css">
	.st0{fill:#E2DEDF;}
	.st1{fill:#FF00FF;}
	.st2{fill:#66CCE2;}
	.st3{fill:#494149;}
</style>
<g id="outline">
	<g>
		<path class="st0" d="M159.7,324.4L21.1,185.8l25.5-25.5l-25.5-25.5l49.5-49.5L96,110.9l89.1-89.1l89.1,89.1l25.5-25.5l49.5,49.5
			l-25.5,25.5l25.5,25.5L236,298.9l-25.5-25.5L159.7,324.4z"/>
	</g>
</g>
<g id="base_colour">
	<polygon class="st1" points="57.9,185.8 185.1,58.5 312.4,185.8 261.5,236.7 185.1,160.4 108.8,236.7 	"/>
</g>
<g id="pixels">
	<g>
		
			<rect x="137.9" y="125.9" transform="matrix(0.7071 -0.7071 0.7071 0.7071 -52.3469 143.4184)" class="st2" width="18" height="18"/>
		
			<rect x="176.1" y="113.2" transform="matrix(0.7071 -0.7071 0.7071 0.7071 -32.1631 166.6905)" class="st2" width="18" height="18"/>
		<rect x="161.5" y="104.9" transform="matrix(0.7071 -0.7071 0.7071 0.7071 -28.755 149.4626)" class="st2" width="9" height="9"/>
		<rect x="206.1" y="124" transform="matrix(0.7071 -0.7071 0.7071 0.7071 -29.2073 186.5545)" class="st2" width="9" height="9"/>
		<polygon class="st2" points="210.6,160.4 223.3,147.6 210.6,134.9 197.9,147.6 185.1,134.9 178.8,141.3 172.4,134.9 166,141.3 
			172.4,147.6 159.7,160.4 166,166.7 159.7,173.1 153.3,166.7 159.7,160.4 146.9,147.6 121.5,173.1 108.8,160.4 96,173.1 
			83.3,160.4 57.9,185.8 108.8,236.7 134.2,211.3 134.2,211.3 172.4,173.1 185.1,160.4 191.5,166.7 197.9,160.4 204.2,166.7 
			197.9,173.1 210.6,185.8 223.3,173.1 		"/>
	</g>
</g>
<g id="line_colour">
	<g>
		<polygon class="st3" points="296.9,144.8 185.1,33.1 98.9,119.3 111.6,132.1 185.1,58.5 284.1,157.5 		"/>
		<polygon class="st3" points="207.8,183 185.1,160.4 137,208.4 149.8,221.2 185.1,185.8 195,195.7 		"/>
		
			<rect x="162.1" y="215" transform="matrix(0.7071 0.7071 -0.7071 0.7071 212.6107 -65.3018)" class="st3" width="46" height="18"/>
		<polygon class="st3" points="220.5,226.8 159.7,287.6 121.5,249.4 131.4,239.5 118.7,226.8 108.8,236.7 57.9,185.8 93.2,150.5 
			80.5,137.7 32.4,185.8 159.7,313.1 233.2,239.5 		"/>
		<polygon class="st3" points="182.3,239.5 169.6,226.8 159.7,236.7 86.1,163.2 73.4,175.9 159.7,262.2 		"/>
		
			<rect x="179.7" y="170.4" transform="matrix(-0.7071 0.7071 -0.7071 -0.7071 518.9741 143.9244)" class="st3" width="100" height="18"/>
		<polygon class="st3" points="299.7,96.7 277.1,119.3 289.8,132.1 299.7,122.2 312.4,134.9 238.9,208.4 251.6,221.2 337.9,134.9 		
			"/>
		<polygon class="st3" points="337.9,185.8 315.2,163.2 302.5,175.9 312.4,185.8 261.5,236.7 226.1,201.4 213.4,214.1 248.8,249.4 
			236,262.2 226.1,252.3 213.4,265 236,287.6 		"/>
		<polygon class="st3" points="70.6,96.7 32.4,134.9 55,157.5 67.8,144.8 57.9,134.9 70.6,122.2 144.1,195.7 156.8,183 		"/>
	</g>
</g>
<g id="text">
	<g>
		<path class="st3" d="M197.2,334.5l8.9-25.6l-3.5-0.3v-4.5h12.6l11.2,31.7h0.1l3.1,0.2v4.7h-14.2v-4.5l2.1-0.2
			c0.6-0.1,1-0.2,1.3-0.4c0.2-0.2,0.2-0.6,0.1-1.2l-1.2-3.4h-12.9l-1.7,4.8l3.3,0.2v4.7h-12.7v-4.5l1.8-0.2
			C196.3,336,196.9,335.5,197.2,334.5z M211.2,310.2l-5.1,15.7h10.2l-5-15.7H211.2z"/>
		<path class="st3" d="M232,317.5V313h9.3v3.6c2.1-2.9,4.9-4.4,8.4-4.4s6,1.5,7.2,4.4c2.1-2.9,4.8-4.4,8.4-4.4
			c2.6,0,4.7,0.8,6.1,2.4s2.1,4,2.1,7.2v14.4l3.1,0.2v4.4h-13.1v-4.2l1.8-0.2c0.5-0.1,0.9-0.2,1.2-0.5c0.2-0.2,0.4-0.7,0.4-1.3
			v-11.4c0-2-0.2-3.5-0.7-4.5c-0.5-1-1.5-1.5-3.2-1.5c-1.7,0-3,0.5-3.9,1.5s-1.3,2.4-1.3,4.1v13.2l3,0.2v4.4h-13v-4.2l1.8-0.2
			c0.5-0.1,1-0.2,1.2-0.5c0.3-0.2,0.4-0.7,0.4-1.3v-11.3c0-2-0.2-3.5-0.7-4.5c-0.5-1-1.5-1.5-3.2-1.5s-3,0.5-3.9,1.6s-1.3,2.4-1.3,4
			v13.3l3,0.2v4.4h-13v-4.2l1.8-0.2c0.6-0.1,1-0.2,1.2-0.5c0.3-0.2,0.4-0.7,0.4-1.3h0.1v-15.2c0-0.6-0.1-1.1-0.3-1.3
			c-0.2-0.2-0.6-0.4-1.1-0.4L232,317.5z"/>
		<path class="st3" d="M307.3,336.3v4.3h-8.9v-3.6c-2,2.9-5,4.3-8.9,4.3c-5.7,0-8.5-3.2-8.5-9.5v-12.7c0-1-0.5-1.5-1.4-1.5l-1.8-0.1
			V313h9.7v17.4c0,1.9,0.3,3.4,0.8,4.4s1.7,1.5,3.4,1.5c1.7,0,3.1-0.5,4.2-1.6c1-1.1,1.6-2.3,1.6-3.8v-11.6c0-0.6-0.1-1-0.3-1.2
			c-0.2-0.2-0.6-0.4-1.1-0.4l-1.8-0.1V313h9.7v21.6c0,0.6,0.1,1,0.3,1.2c0.2,0.2,0.5,0.3,1.1,0.4L307.3,336.3z"/>
		<path class="st3" d="M319.9,301.4v34.6l3.1,0.2v4.4h-13.1v-4.2l1.8-0.2c1.1-0.1,1.6-0.7,1.6-1.8v-27.1c0-0.8-0.5-1.2-1.4-1.3
			L310,306v-4.6H319.9z"/>
		<path class="st3" d="M338.9,312.2c2.8,0,4.9,0.7,6.5,2c1.6,1.3,2.4,3.2,2.4,5.6c0,1.6-0.3,3-1,4.3c-0.7,1.2-1.6,2.2-2.6,2.9
			c-1,0.7-2.3,1.3-3.7,1.7c-2.5,0.7-5.2,1.1-8.3,1.1c0.1,1.9,0.7,3.5,1.8,4.7c1.1,1.2,2.8,1.8,5.1,1.8c2.3,0,4.5-0.8,6.8-2.4
			l2.1,4.5c-0.7,0.7-2,1.3-3.7,2c-1.7,0.7-3.7,1-6,1c-4.5,0-7.8-1.2-9.8-3.7c-2.1-2.5-3.1-5.9-3.1-10.2c0-4.3,1.2-8,3.6-10.9
			C331.2,313.6,334.6,312.2,338.9,312.2z M336.4,324.7c1.3-0.2,2.6-0.8,3.7-1.6c1.1-0.8,1.7-1.8,1.7-2.9c0-2.2-1.1-3.4-3.3-3.4
			c-2.1,0-3.6,0.8-4.7,2.4c-1.1,1.6-1.7,3.6-1.8,5.9C333.5,325.1,335,325,336.4,324.7z"/>
		<path class="st3" d="M357.5,307.2h3.6v5.8h7.3l-0.5,4.6h-6.8v14.5c0,1.6,0.3,2.7,0.9,3.4c0.6,0.6,1.5,1,2.7,1
			c1.2,0,2.5-0.4,3.7-1.2l1.7,4.2c-1.8,1.3-4.2,1.9-7,1.9c-1.6,0-3-0.2-4.2-0.6c-1.1-0.4-2-0.9-2.5-1.4c-0.5-0.5-1-1.3-1.3-2.3
			c-0.3-1-0.5-1.8-0.5-2.3c0-0.6-0.1-1.4-0.1-2.5v-14.7h-3.9l0.5-4c1.7-0.1,3-0.8,3.9-1.8C356,310.7,356.8,309.1,357.5,307.2z"/>
	</g>
</g>
</svg>
